<?xml version="1.0" encoding="utf-8"?>
<svg class="flag_logo_inner_1" viewBox="0 0 75 42" xmlns="http://www.w3.org/2000/svg">
  <g id="#27d29cff" transform="matrix(1, 0, 0, 1, -181.496964, -94.75)">
    <path fill="#27d29c" opacity="1.00" d="M 181.498 136.749 C 181.498 122.749 181.497 108.75 181.499 94.75 C 206.498 94.75 231.498 94.75 256.497 94.75 C 252.206 101.749 247.921 108.753 243.629 115.75 C 247.918 122.749 252.205 129.75 256.494 136.75 C 231.495 136.748 206.497 136.75 181.498 136.749 M 184.971 104.476 C 196.044 104.478 207.118 104.477 218.191 104.477 C 218.191 102.387 218.191 100.297 218.191 98.206 C 207.118 98.205 196.046 98.208 184.973 98.205 C 184.969 100.295 184.973 102.386 184.971 104.476 M 222.237 98.207 C 223.572 100.372 224.881 102.554 226.229 104.712 C 232.931 104.699 239.632 104.711 246.334 104.705 C 247.657 102.538 248.989 100.376 250.312 98.208 C 240.954 98.204 231.595 98.207 222.237 98.207 M 221.664 103.909 C 221.663 107.333 221.667 110.757 221.662 114.181 C 221.667 114.314 221.644 114.461 221.733 114.574 C 225.556 120.82 229.373 127.07 233.195 133.316 C 235.345 133.315 237.494 133.317 239.642 133.315 C 233.648 123.514 227.654 113.713 221.664 103.909 M 184.967 107.94 C 184.976 109.944 184.97 111.948 184.971 113.952 C 196.044 113.954 207.117 113.953 218.191 113.953 C 218.191 111.946 218.192 109.94 218.191 107.933 C 207.116 107.937 196.041 107.924 184.967 107.94 M 228.314 108.139 C 229.497 110.078 230.68 112.017 231.867 113.953 C 234.803 113.949 237.738 113.959 240.674 113.948 C 241.853 112.008 243.046 110.077 244.23 108.139 C 238.925 108.139 233.62 108.139 228.314 108.139 M 184.971 117.387 C 184.971 122.696 184.971 128.006 184.971 133.315 C 199.691 133.316 214.41 133.318 229.13 133.314 C 225.878 128.006 222.641 122.688 219.382 117.383 C 207.912 117.391 196.442 117.383 184.971 117.387 M 233.966 117.387 C 237.203 122.695 240.46 127.99 243.687 133.304 C 245.898 133.331 248.109 133.309 250.319 133.316 C 247.068 128.001 243.818 122.687 240.552 117.381 C 238.358 117.393 236.162 117.381 233.966 117.387 Z"/>
    <path fill="#27d29c" opacity="1.00" d="M 188.813 120.682 C 197.893 120.682 206.972 120.682 216.051 120.682 C 216.05 121.826 216.052 122.971 216.05 124.116 C 206.972 124.115 197.893 124.114 188.815 124.116 C 188.811 122.972 188.814 121.826 188.813 120.682 Z"/>
    <path fill="#27d29c" opacity="1.00" d="M 188.814 126.494 C 197.894 126.496 206.972 126.494 216.051 126.495 C 216.051 127.647 216.051 128.8 216.051 129.951 C 206.972 129.951 197.893 129.951 188.813 129.951 C 188.813 128.799 188.811 127.647 188.814 126.494 Z"/>
  </g>
</svg>